<?xml version="1.0" standalone="no"?>
<!DOCTYPE svg PUBLIC "-//W3C//DTD SVG 20010904//EN"
 "http://www.w3.org/TR/2001/REC-SVG-20010904/DTD/svg10.dtd">
<svg version="1.0" xmlns="http://www.w3.org/2000/svg"
 width="1024.000000pt" height="1024.000000pt" viewBox="0 0 1024.000000 1024.000000"
 preserveAspectRatio="xMidYMid meet">
<metadata>
Created by potrace 1.14, written by Peter Selinger 2001-2017
</metadata>
<g transform="translate(0.000000,1024.000000) scale(0.100000,-0.100000)"
fill="#000000" stroke="none">
<path d="M0 5120 l0 -5120 5120 0 5120 0 0 5120 0 5120 -5120 0 -5120 0 0
-5120z m1664 3430 c275 -45 430 -338 310 -587 -15 -32 -28 -61 -28 -64 -1 -4
481 -439 1069 -967 1052 -945 1070 -960 1090 -942 35 32 121 69 188 81 129 24
264 -19 358 -113 67 -67 105 -141 120 -235 7 -40 16 -73 20 -73 13 0 3718
-489 3757 -495 22 -4 32 -2 32 7 0 33 62 139 108 184 165 162 419 162 584 0
258 -254 74 -705 -289 -706 l-62 0 -12 -42 c-6 -24 -159 -614 -339 -1313
l-327 -1270 51 -30 c243 -140 287 -460 92 -657 -224 -225 -612 -118 -692 190
l-17 68 -1141 22 c-628 12 -1170 25 -1206 28 l-65 5 -18 -62 c-73 -251 -344
-373 -580 -261 -195 92 -286 338 -199 535 l20 44 -959 699 c-528 385 -963 700
-968 702 -5 2 -24 -10 -43 -26 -132 -113 -310 -133 -467 -52 -25 12 -69 46
-98 76 -160 159 -160 419 0 578 51 52 139 106 172 106 9 0 15 9 15 23 0 25
-518 3695 -525 3713 -2 6 -30 13 -62 16 -196 14 -364 200 -365 403 0 166 83
305 227 376 91 45 154 55 249 39z"/>
<path d="M1825 7796 c-27 -18 -66 -38 -86 -45 -29 -9 -35 -16 -32 -34 9 -57
523 -3695 523 -3705 0 -7 14 -12 33 -12 18 0 59 -7 91 -15 229 -60 363 -308
285 -531 -11 -32 -21 -64 -22 -70 -1 -6 431 -327 961 -713 l962 -702 33 31
c125 119 347 136 498 39 90 -58 156 -151 182 -258 11 -49 13 -51 52 -55 22 -3
542 -14 1155 -26 613 -11 1138 -22 1167 -23 l51 -4 13 46 c27 102 77 175 163
238 68 50 145 75 236 78 l65 1 52 204 c29 112 50 207 46 211 -7 5 -315 44
-432 54 -95 8 -1078 133 -1092 139 -8 4 -86 166 -172 361 -153 345 -157 356
-140 375 18 19 32 17 993 -115 536 -74 987 -135 1001 -135 23 0 28 6 38 47 7
26 95 369 197 762 101 393 184 718 184 721 0 4 -19 15 -42 26 -53 24 -136 105
-169 164 -26 47 -44 105 -54 175 l-6 40 -1882 248 c-1035 136 -1890 248 -1899
247 -10 0 -18 -6 -18 -12 0 -7 -11 -35 -24 -63 -61 -132 -199 -224 -346 -233
-130 -7 -231 30 -321 120 -128 128 -157 328 -71 491 17 31 22 51 16 55 -6 4
-487 435 -1068 957 -582 523 -1061 951 -1065 952 -3 1 -28 -13 -56 -31z m5790
-3341 c279 -73 374 -425 169 -629 -181 -181 -488 -131 -603 98 -35 72 -48 163
-32 238 16 78 41 128 94 185 97 105 232 144 372 108z"/>
<path d="M6483 3318 c19 -51 271 -614 276 -620 8 -8 479 -64 485 -57 7 7 -44
582 -53 590 -5 6 -668 100 -700 99 -7 0 -11 -6 -8 -12z"/>
<path d="M7260 3196 c1 -60 49 -558 55 -564 6 -7 448 -62 453 -57 2 1 10 130
19 285 11 206 12 284 4 289 -6 4 -87 17 -179 30 -92 12 -209 28 -259 35 l-93
13 0 -31z"/>
<path d="M7860 3128 c0 -7 -7 -125 -15 -263 -8 -137 -15 -261 -15 -276 l0 -25
222 -27 c122 -14 223 -25 224 -24 4 4 144 550 141 553 -3 3 -519 74 -540 74
-9 0 -17 -6 -17 -12z"/>
</g>
</svg>
